<?xml version="1.0" encoding="UTF-8"?>
<svg width="39" height="39" viewBox="0 0 39 39" fill="none" xmlns="http://www.w3.org/2000/svg">
<circle cx="19.5" cy="19.5" r="19.5" fill="white"/>
<path fill-rule="evenodd" clip-rule="evenodd" d="M17.9665 2.0874C9.06477 2.86608 2.08154 10.3594 2.08154 19.4882C2.08154 29.1353 9.88009 36.9558 19.5001 36.9558C29.1201 36.9558 36.9186 29.1353 36.9186 19.4882C36.9186 17.5008 36.5876 15.5909 35.9779 13.8109L31.1762 17.6579C31.2681 18.2543 31.3158 18.8656 31.3158 19.4882C31.3158 26.0559 26.0109 31.353 19.5001 31.353C12.9893 31.353 7.68436 26.0559 7.68436 19.4882C7.68436 13.4447 12.1764 8.47697 17.9665 7.7226V2.0874Z" fill="#FBCA01"/>
<path d="M22.7865 2.33105C26.6136 3.06388 29.9964 5.05257 32.4921 7.85313L29.4716 13.0996C28.4508 11.5006 27.058 10.1634 25.4157 9.2107V19.7079H25.4117C25.2965 22.8825 22.6938 25.4206 19.5 25.4206C16.2328 25.4206 13.5842 22.7646 13.5842 19.4882C13.5842 16.2118 16.2328 13.5558 19.5 13.5558C20.7161 13.5558 21.8465 13.9238 22.7865 14.5548V2.33105Z" fill="#FC401D"/>
</svg>
