<?xml version="1.0" ?><!DOCTYPE svg  PUBLIC '-//W3C//DTD SVG 1.1//EN'  'http://www.w3.org/Graphics/SVG/1.1/DTD/svg11.dtd'><svg enable-background="new 0 0 512 512" height="512px" version="1.1" viewBox="0 0 512 512" width="512px" xml:space="preserve" xmlns="http://www.w3.org/2000/svg" xmlns:xlink="http://www.w3.org/1999/xlink"><g><g id="Guides"/><g id="Layer_2"><g><path d="M506,256.879c0,138.066-111.934,250-250,250c-138.067,0-250-111.934-250-250      c0-138.067,111.933-250,250-250C394.066,6.879,506,118.812,506,256.879L506,256.879z M506,256.879" fill="#F36B2A"/><path d="M80.462,313.629c-0.13,0.805-0.721,1.393-1.46,1.393c-0.759,0-1.325-0.588-1.455-1.414l-2.633-19.78      l2.633-20.101c0.106-0.832,0.696-1.42,1.455-1.42c0.74,0,1.33,0.588,1.46,1.42l3.136,20.122L80.462,313.629z M93.907,325.641      c-0.103,0.87-0.74,1.458-1.521,1.458c-0.74,0-1.393-0.588-1.504-1.458l-3.542-31.813l3.542-32.531      c0.111-0.826,0.764-1.458,1.504-1.458c0.781,0,1.417,0.609,1.521,1.458l4.05,32.531L93.907,325.641z M108.449,331.037      c-0.112,1.022-0.876,1.763-1.812,1.763c-0.952,0-1.716-0.74-1.828-1.763l-3.37-37.188l3.37-38.58      c0.09-1.042,0.876-1.806,1.828-1.806c0.936,0,1.7,0.765,1.812,1.806l3.827,38.58L108.449,331.037z M123.112,332.217      c-0.108,1.17-1.022,2.09-2.129,2.09c-1.132,0-2.051-0.92-2.135-2.09l-3.196-38.368l3.196-39.644      c0.084-1.199,1.003-2.089,2.135-2.089c1.107,0,2.021,0.89,2.129,2.089l3.612,39.644L123.112,332.217z M137.865,332.517      c-0.065,1.371-1.153,2.394-2.416,2.394c-1.305,0-2.35-1.022-2.437-2.394l-3.024-38.668l3.024-36.773      c0.087-1.371,1.132-2.391,2.437-2.391c1.284,0,2.35,1.02,2.416,2.366l3.417,36.799L137.865,332.517z M152.749,332.538v-0.021      c-0.087,1.523-1.284,2.726-2.742,2.726s-2.655-1.202-2.742-2.704l-2.807-38.667l2.807-59.837      c0.087-1.526,1.284-2.723,2.742-2.723s2.676,1.197,2.742,2.701l3.199,59.859L152.749,332.538z M167.546,332.517v-0.021      c-0.087,1.697-1.436,3.024-3.068,3.024c-1.632,0-2.959-1.327-3.046-3.024l-2.655-38.406l2.655-73.546      c0.087-1.678,1.415-3.024,3.046-3.024c1.632,0,2.981,1.346,3.068,3.024l2.981,73.546L167.546,332.517z M182.887,331.929v-0.021      c-0.087,1.871-1.545,3.335-3.373,3.335c-1.806,0-3.286-1.464-3.351-3.313l-2.458-38.036c0,0,2.458-79.663,2.458-79.685      c0.065-1.85,1.545-3.332,3.351-3.332c1.828,0,3.308,1.482,3.373,3.332l2.785,79.685L182.887,331.929z M198.119,331.668      c-0.065,2.045-1.676,3.655-3.656,3.655c-2.002,0-3.59-1.61-3.677-3.634l-2.285-37.797l2.285-82.342      c0.087-2.067,1.675-3.653,3.677-3.653c1.98,0,3.59,1.585,3.656,3.653l2.546,82.342L198.119,331.668z M213.459,331.342v-0.022      c-0.065,2.198-1.785,3.961-3.982,3.961c-2.154,0-3.917-1.763-3.96-3.938l-2.111-37.449l2.089-80.231      c0.065-2.239,1.828-3.982,3.982-3.982c2.198,0,3.917,1.744,3.982,3.982l2.372,80.231L213.459,331.342z M228.931,331.124v-0.044      c-0.043,2.416-1.937,4.266-4.265,4.266c-2.372,0-4.243-1.85-4.308-4.222l-1.915-37.231l1.915-77.311      c0.065-2.396,1.937-4.268,4.308-4.268c2.329,0,4.243,1.872,4.265,4.268l2.176,77.338L228.931,331.124z M244.707,327.186      l-0.175,3.655c-0.043,1.263-0.565,2.415-1.393,3.242s-1.979,1.327-3.198,1.327c-1.415,0-2.655-0.631-3.525-1.675      c-0.631-0.74-1.022-1.697-1.066-2.698c0-0.065,0-0.109,0-0.175c0,0-1.763-36.926-1.763-36.991l1.741-91.109l0.021-0.87      c0-1.588,0.849-3.003,2.111-3.827c0.718-0.479,1.545-0.74,2.48-0.74s1.806,0.277,2.523,0.778      c1.241,0.833,2.046,2.225,2.067,3.789l1.937,92.028L244.707,327.186z M260.047,330.367v-0.049      c-0.021,2.677-2.241,4.875-4.896,4.875c-2.677,0-4.874-2.198-4.918-4.853l-1.001-17.974l-1.001-18.431l2.002-99.854v-0.503      c0.021-1.526,0.718-2.872,1.828-3.786c0.849-0.696,1.937-1.11,3.09-1.11c0.914,0,1.763,0.261,2.502,0.696      c1.393,0.871,2.372,2.418,2.416,4.178l2.176,100.379L260.047,330.367z M392.544,335.302H269.056      c-2.676-0.283-4.766-2.394-4.809-5.136V188.789c0.043-2.584,0.936-3.938,4.286-5.219c8.64-3.354,18.432-5.332,28.506-5.332      c41.062,0,74.724,31.487,78.292,71.631c5.288-2.217,11.12-3.457,17.213-3.457c24.589,0,44.542,19.932,44.542,44.542      S417.133,335.302,392.544,335.302L392.544,335.302z M392.544,335.302" fill="#F2F2F2"/></g></g></g></svg>